<svg xmlns="http://www.w3.org/2000/svg" width="139.71" height="139.71" viewBox="0 0 139.71 139.71"><defs><style>.a{isolation:isolate;}.b{fill:#fff;}.c{fill:#54a5f5;}</style></defs><title>Logo WADM</title><g class="a"><rect class="b" width="139.71" height="139.71"/><path class="c" d="M70.56,24.44a4.28,4.28,0,0,0,4.25-4.25,4.36,4.36,0,0,0-4.25-4.34,4.29,4.29,0,0,0-4.16,4.34A4.21,4.21,0,0,0,70.56,24.44Zm50.26,83v-1.71a8.68,8.68,0,0,0,0-10.09V86.13a8.67,8.67,0,0,0,0-12.88V66.74a8.72,8.72,0,0,0,0-10.94V52.92a8.58,8.58,0,0,0,5-7.86,8.49,8.49,0,0,0-8.4-8.58,8.39,8.39,0,0,0-7.63,5h-3.37a8.23,8.23,0,0,0-10.35,0H95a8.5,8.5,0,0,0-2.22-1.75L76.47,23.07l-0.82.84L90.28,38.85a8.19,8.19,0,0,0-1.45-.14,8.29,8.29,0,0,0-6.18,2.78H76.37a8.27,8.27,0,0,0-11.78,0H55.81a8.33,8.33,0,0,0-5-2.69l14.59-14.9-0.82-.84L49.27,38.73a8.3,8.3,0,0,0-5.82,2.77H42.36A8.23,8.23,0,0,0,32,41.5H31.13a8.59,8.59,0,0,0-.63-1,8.38,8.38,0,0,0-7.62-5,8.49,8.49,0,0,0-8.4,8.58,8.61,8.61,0,0,0,1.67,5.1,8.56,8.56,0,0,0,3,3.64v3.43a8.68,8.68,0,0,0,0,10v7a8.67,8.67,0,0,0,0,12.81v9.57a8.68,8.68,0,0,0,0,10v1.65a8.6,8.6,0,0,0,3.09,16.55,8.37,8.37,0,0,0,7.36-4.45h1.94a8.24,8.24,0,0,0,11.26,0h2.43a8.2,8.2,0,0,0,8.77,0h10.5a8.27,8.27,0,0,0,11.93,0H84a8.22,8.22,0,0,0,9.72,0h1.62a8.27,8.27,0,0,0,11.93,0h2.85a8.37,8.37,0,0,0,7.36,4.45,8.49,8.49,0,0,0,8.4-8.58A8.58,8.58,0,0,0,120.81,107.42Zm-9.46,2.25H28.6V51.23h82.75v58.43Z"/></g></svg>